<svg width="221" height="43" viewBox="0 0 221 43" fill="none" xmlns="http://www.w3.org/2000/svg">
<path d="M76.1258 11.4654C78.0862 10.1221 97.5818 11.5743 100.45 11.5743C104.298 11.5743 106.694 12.9902 106.694 17.7461V18.69C104.552 17.7461 102.011 17.2379 99.6149 17.2379C93.6609 17.2379 89.3407 20.3601 89.3407 26.2414C89.3407 32.1591 93.6246 34.8819 98.9977 34.8819C101.975 34.8819 104.698 34.0832 106.948 32.5947V34.5189H111.414V17.4557C111.414 9.54126 107.094 6.99994 100.994 6.99994C96.529 6.99994 80.5738 6.99994 76.1258 6.99994V11.4654ZM100.087 30.8884C96.6742 30.8884 93.9151 29.4362 93.9151 25.9873C93.9151 22.3931 96.9283 20.7957 100.777 20.7957C102.664 20.7957 104.843 21.1588 106.694 21.8122V29.291C104.698 30.3075 102.229 30.8884 100.087 30.8884ZM159.155 6.99994C152.475 6.99994 147.755 11.8648 147.755 21.0498C147.755 30.3075 152.438 35.2087 159.155 35.2087C165.762 35.2087 170.482 30.3075 170.482 21.0498C170.482 11.8648 165.689 6.99994 159.155 6.99994ZM159.155 11.4654C163.112 11.4654 165.907 14.7691 165.907 21.1225C165.907 27.4032 163.112 30.7069 159.155 30.7069C155.088 30.7069 152.366 27.4032 152.366 21.1225C152.366 14.7691 155.125 11.4654 159.155 11.4654ZM208.747 6.99994C202.103 6.99994 197.347 11.8648 197.347 21.0498C197.347 30.3075 202.03 35.2087 208.747 35.2087C215.354 35.2087 220.074 30.3075 220.074 21.0498C220.074 11.8648 215.318 6.99994 208.747 6.99994ZM208.747 11.4654C212.704 11.4654 215.499 14.7691 215.499 21.1225C215.499 27.4032 212.704 30.7069 208.747 30.7069C204.681 30.7069 201.994 27.4032 201.994 21.1225C201.994 14.7691 204.717 11.4654 208.747 11.4654Z" fill="white"/>
<path d="M76.1258 6.99994C69.2279 6.99994 64 11.8648 64 21.0498C64 30.3075 69.2279 35.2087 75.6175 35.2087C81.2084 35.2087 84.3306 31.5419 85.4924 29.5088L82.0434 26.9675C80.7001 29.1821 78.6308 30.7069 75.8716 30.7069C72.0233 30.7069 68.7196 27.5847 68.7196 21.1225C68.7196 14.6602 72.0233 11.4654 76.1258 11.4654V6.99994Z" fill="white"/>
<path d="M194.261 8.59735L194.211 8.55108C193.324 7.73439 192.527 6.99993 189.542 6.99994C180.742 6.99994 177.656 12.9999 177.234 15.9999V34.5189H182.063V16.4028C183.588 12.6272 185.875 11.5743 188.634 11.5743C190.231 11.5743 191.502 11.9011 192.482 12.8813L194.261 8.59735Z" fill="white"/>
<path d="M118.929 16.2939C119 18.4999 118.929 34.5189 118.929 34.5189H123.757V16.2939C125.246 12.7361 127.642 11.5743 130.474 11.5743C134.032 11.5743 136.355 13.3533 136.355 18.0003V34.5189H141.184V17.492C141.184 9.97692 136.446 6.99994 131 6.99994C122.5 6.99994 118.929 13.9999 118.929 16.2939Z" fill="white"/>
<path d="M43.5155 8.44757C43.1916 4.22916 40.0158 0.819032 35.9056 0.133997C35.4062 0.0478067 34.9004 0.00298889 34.3936 0C33.8713 0 33.3604 0.0480096 32.8616 0.133997C31.6499 0.341801 30.5199 0.786787 29.5181 1.4188C28.54 2.03193 27.6866 2.82452 27.003 3.7548C26.9829 3.77988 26.9593 3.8028 26.9421 3.82932C26.8941 3.89596 0 42.3117 0 42.3117L21.7721 42.3131C33.776 42.3145 43.5098 32.6015 43.547 20.6062L43.5485 20.5403V15.6906L50.9262 12.0763L43.5155 8.44757ZM35.4534 9.82982C35.0952 9.82982 34.7516 9.68752 34.4983 9.43421C34.245 9.1809 34.1027 8.83734 34.1027 8.4791C34.1027 8.12087 34.245 7.77731 34.4983 7.524C34.7516 7.27069 35.0952 7.12838 35.4534 7.12838C35.8117 7.12838 36.1552 7.27069 36.4085 7.524C36.6618 7.77731 36.8042 8.12087 36.8042 8.4791C36.8042 8.83734 36.6618 9.1809 36.4085 9.43421C36.1552 9.68752 35.8117 9.82982 35.4534 9.82982Z" fill="url(#paint0_linear_61_115)"/>
<defs>
<linearGradient id="paint0_linear_61_115" x1="3" y1="16" x2="47" y2="39" gradientUnits="userSpaceOnUse">
<stop stop-color="#0D7CE9"/>
<stop offset="1" stop-color="#15CFF1"/>
</linearGradient>
</defs>
</svg>
