<svg width="51" height="43" viewBox="0 0 51 43" fill="none" xmlns="http://www.w3.org/2000/svg">
<path d="M43.5155 8.44757C43.1916 4.22916 40.0158 0.819032 35.9056 0.133997C35.4061 0.0478067 34.9004 0.00298889 34.3936 0C33.8713 0 33.3604 0.0480096 32.8616 0.133997C31.6499 0.341801 30.5199 0.786787 29.5181 1.4188C28.54 2.03193 27.6866 2.82452 27.003 3.7548C26.9829 3.77987 26.9593 3.8028 26.9421 3.82932C26.8941 3.89596 0 42.3117 0 42.3117L21.7721 42.3131C33.776 42.3145 43.5098 32.6015 43.547 20.6062L43.5485 20.5403V15.6906L50.9262 12.0763L43.5155 8.44757ZM35.4534 9.82982C35.0952 9.82982 34.7516 9.68752 34.4983 9.43421C34.245 9.1809 34.1027 8.83734 34.1027 8.4791C34.1027 8.12087 34.245 7.7773 34.4983 7.524C34.7516 7.27069 35.0952 7.12838 35.4534 7.12838C35.8117 7.12838 36.1552 7.27069 36.4085 7.524C36.6619 7.7773 36.8042 8.12087 36.8042 8.4791C36.8042 8.83734 36.6619 9.1809 36.4085 9.43421C36.1552 9.68752 35.8117 9.82982 35.4534 9.82982Z" fill="url(#paint0_linear_68_553)"/>
<defs>
<linearGradient id="paint0_linear_68_553" x1="3" y1="16" x2="47" y2="39" gradientUnits="userSpaceOnUse">
<stop stop-color="#0D7CE9"/>
<stop offset="1" stop-color="#15CFF1"/>
</linearGradient>
</defs>
</svg>
