<svg width="469" height="128" viewBox="0 0 469 128" fill="none" xmlns="http://www.w3.org/2000/svg">
<path d="M36.3773 35.1875C42.2586 31.1577 100.745 35.5142 109.35 35.5142C120.895 35.5142 128.083 39.7619 128.083 54.0296V56.8614C121.657 54.0296 114.033 52.5048 106.845 52.5048C88.9827 52.5048 76.022 61.8714 76.022 79.5155C76.022 97.2685 88.8738 105.437 104.993 105.437C113.924 105.437 122.093 103.041 128.845 98.5754V104.348H142.242V53.1583C142.242 29.4151 129.281 21.7911 110.983 21.7911C97.587 21.7911 49.7214 21.7911 36.3773 21.7911V35.1875ZM108.261 93.4565C98.0226 93.4565 89.7451 89.0999 89.7451 78.7531C89.7451 67.9706 98.785 63.1784 110.33 63.1784C115.993 63.1784 122.528 64.2675 128.083 66.228V88.6643C122.093 91.7139 114.686 93.4565 108.261 93.4565ZM285.464 21.7911C265.423 21.7911 251.265 36.3856 251.265 63.9408C251.265 91.7139 265.315 106.417 285.464 106.417C305.286 106.417 319.445 91.7139 319.445 63.9408C319.445 36.3856 305.068 21.7911 285.464 21.7911ZM285.464 35.1875C297.335 35.1875 305.722 45.0987 305.722 64.1586C305.722 83.0008 297.335 92.9119 285.464 92.9119C273.265 92.9119 265.097 83.0008 265.097 64.1586C265.097 45.0987 273.374 35.1875 285.464 35.1875ZM434.24 21.7911C414.309 21.7911 400.041 36.3856 400.041 63.9408C400.041 91.7139 414.091 106.417 434.24 106.417C454.063 106.417 468.221 91.7139 468.221 63.9408C468.221 36.3856 453.954 21.7911 434.24 21.7911ZM434.24 35.1875C446.112 35.1875 454.498 45.0987 454.498 64.1586C454.498 83.0008 446.112 92.9119 434.24 92.9119C422.042 92.9119 413.982 83.0008 413.982 64.1586C413.982 45.0987 422.151 35.1875 434.24 35.1875Z" fill="white"/>
<path d="M36.3773 21.7911C15.6836 21.7911 0 36.3856 0 63.9408C0 91.7139 15.6836 106.417 34.8525 106.417C51.6252 106.417 60.9918 95.417 64.4771 89.3178L54.1303 81.6938C50.1004 88.3375 43.8924 92.9119 35.6149 92.9119C24.07 92.9119 14.1588 83.5453 14.1588 64.1586C14.1588 44.7719 24.07 35.1875 36.3773 35.1875V21.7911Z" fill="white"/>
<path d="M390.784 26.5833L390.633 26.4445C387.973 23.9944 385.581 21.791 376.625 21.7911C350.225 21.7911 340.969 39.7911 339.703 48.7911V104.348H354.188V49.9998C358.763 38.6727 365.624 35.5142 373.902 35.5142C378.694 35.5142 382.506 36.4945 385.447 39.4352L390.784 26.5833Z" fill="white"/>
<path d="M164.787 49.6731C165 56.2911 164.787 104.348 164.787 104.348H179.272V49.6731C183.738 38.9995 190.926 35.5142 199.422 35.5142C210.095 35.5142 217.066 40.851 217.066 54.792V104.348H231.551V53.2672C231.551 30.722 217.337 21.7911 201 21.7911C175.5 21.7911 164.787 42.7911 164.787 49.6731Z" fill="white"/>
</svg>
